<?xml version="1.0" encoding="UTF-8"?><svg id="Layer_1" xmlns="http://www.w3.org/2000/svg" viewBox="0 0 508.18 810.07"><defs><style>.cls-1{fill:#f6f6f6;}.cls-2{fill:#ffb000;}.cls-3{fill:#ff00b0;}</style></defs><path class="cls-3" d="M446.84,370.4h-18.54c-27.56,0-49.9,22.34-49.9,49.89h0c0,27.56,22.34,49.89,49.9,49.89h18.55v-99.79Z"/><path class="cls-2" d="M354.76,148.61h92.08V79.65h-92.08c-19.04,0-34.48,15.44-34.48,34.48h0c0,19.04,15.44,34.48,34.48,34.48Z"/><path class="cls-1" d="M289.05,310.97h157.79v-99.81c-.34,0-.68,.03-1.03,.03h-156.76c-27.56,0-49.9,22.34-49.9,49.89h0c0,27.56,22.34,49.89,49.89,49.89Z"/><circle class="cls-1" cx="207.38" cy="413.33" r="55.38"/><circle class="cls-3" cx="207.38" cy="117.21" r="55.38"/><path class="cls-1" d="M236.17,640.81h210.67v3.91H236.17c-16.87,0-32.74,6.57-44.67,18.5-11.93,11.93-18.5,27.8-18.5,44.67,0,34.84,28.34,63.18,63.18,63.18h210.67v3.91H236.17c-36.99,0-67.09-30.1-67.09-67.09,0-17.92,6.98-34.77,19.65-47.44,12.67-12.67,29.52-19.65,47.44-19.65Z"/></svg>