<?xml version="1.0" encoding="UTF-8"?><svg id="Layer_1" xmlns="http://www.w3.org/2000/svg" xmlns:xlink="http://www.w3.org/1999/xlink" viewBox="0 0 508.18 810.07"><defs><style>.cls-1,.cls-2{fill:#f6f6f6;}.cls-3{fill:#ffb000;}.cls-4{fill:#fff;}.cls-5{fill:#ff00b0;}.cls-6{fill:#142846;}.cls-7{fill:#0a3080;}.cls-2{filter:url(#drop-shadow-1);}</style><filter id="drop-shadow-1" filterUnits="userSpaceOnUse"><feOffset dx="7" dy="7"/><feGaussianBlur result="blur" stdDeviation="5"/><feFlood flood-color="#8d8d8d" flood-opacity=".45"/><feComposite in2="blur" operator="in"/><feComposite in="SourceGraphic"/></filter></defs><path class="cls-5" d="M239.12,143.94c-23.42,23.42-61.39,23.42-84.8,0-23.42-23.42-23.42-61.39,0-84.8l84.8,84.8Z"/><polygon class="cls-5" points="338.02 748.14 263.1 748.14 338.02 673.22 338.02 748.14"/><path class="cls-3" d="M111.53,660.55c-6.91-6.91-11.19-16.46-11.19-27.02,0-21.1,17.11-38.21,38.21-38.21h128.4c14.58,0,26.4-11.82,26.4-26.4h0c0-14.58-11.82-26.4-26.4-26.4h-70.59c-10.16-.26-19.33-4.49-26.03-11.18-6.91-6.91-11.19-16.46-11.19-27.02,0-21.07,17.05-38.15,38.1-38.21h120.04c21.1,0,38.21-17.1,38.21-38.2h0c0-21.1-17.11-38.21-38.21-38.21h-123.37c-7.29,0-13.88-2.96-18.66-7.74-4.77-4.78-7.73-11.37-7.73-18.67,0-14.49,11.68-26.26,26.14-26.4h16.98c21.1,0,38.21-17.1,38.21-38.21h0c0-21.1-17.11-38.21-38.21-38.21H51.3v76.41h0v52.81h0v76.41h0v205.63h86.26c-10.16-.26-19.33-4.49-26.03-11.18Z"/><path class="cls-3" d="M137.55,671.73H51.31v-205.63H197.22c-21.04,.06-38.1,17.15-38.1,38.21,0,10.56,4.28,20.1,11.2,27.03,6.7,6.7,15.86,10.91,26.02,11.18h70.59c7.29,0,13.9,2.95,18.67,7.74,4.79,4.77,7.74,11.37,7.74,18.67,0,14.58-11.82,26.4-26.4,26.4H138.54c-21.11,0-38.21,17.1-38.21,38.21,0,10.55,4.28,20.1,11.2,27.01,6.68,6.7,15.86,10.93,26.02,11.18Z"/><path class="cls-3" d="M239.9,709.94h0c0-21.1-17.11-38.21-38.21-38.21H51.3v76.41H201.7c21.1,0,38.21-17.1,38.21-38.2Z"/><path class="cls-1" d="M51.3,164.64c52.66,0,95.34,42.69,95.34,95.34s-42.69,95.34-95.34,95.34V164.64Z"/><path class="cls-7" d="M51.3,204.87c30.44,0,55.11,24.68,55.11,55.12s-24.68,55.12-55.11,55.12v-110.23Z"/><path class="cls-1" d="M214.84,436.84c-9.5,9.5-24.91,9.5-34.41,0-9.5-9.5-9.5-24.91,0-34.41l34.41,34.41Z"/><path class="cls-5" d="M292.65,436.84c-9.5,9.5-24.91,9.5-34.41,0-9.5-9.5-9.5-24.91,0-34.41l34.41,34.41Z"/><path class="cls-7" d="M135.09,436.84c-9.5,9.5-24.91,9.5-34.41,0-9.5-9.5-9.5-24.91,0-34.41l34.41,34.41Z"/><path class="cls-4" d="M381.04,748.14c0-18.93,10.02-28.5,19.7-37.76,9.88-9.44,19.21-18.36,19.21-36.61s-9.33-27.16-19.21-36.6c-9.69-9.26-19.7-18.83-19.7-37.76s10.02-28.5,19.7-37.76c9.88-9.44,19.21-18.36,19.21-36.61s-9.33-27.16-19.21-36.6c-9.69-9.26-19.7-18.83-19.7-37.76h1.6c0,18.25,9.33,27.17,19.21,36.61,9.69,9.26,19.7,18.83,19.7,37.76s-10.02,28.5-19.7,37.76c-9.88,9.44-19.21,18.36-19.21,36.6s9.33,27.17,19.21,36.61c9.69,9.26,19.7,18.83,19.7,37.76s-10.02,28.5-19.7,37.76c-9.88,9.44-19.21,18.36-19.21,36.6h-1.6Z"/><rect class="cls-7" x="262" y="629.17" width="40.84" height="40.84" transform="translate(542.05 -9.44) rotate(45)"/><path class="cls-7" d="M233.1,542.52h-52.54c-21.1,0-38.21-17.11-38.21-38.21h0c0-21.1,17.11-38.21,38.21-38.21h53.42c-21.04,.06-38.1,17.15-38.1,38.21,0,10.56,4.28,20.1,11.2,27.03,6.7,6.7,15.86,10.91,26.02,11.18Z"/><path class="cls-5" d="M51.3,503.27c28.94,0,52.4,23.46,52.4,52.4h0c0,28.94-23.46,52.4-52.4,52.4v-104.81Z"/><path class="cls-6" d="M51.3,633.82v-1.6h123.57c20.63,0,37.41-16.78,37.41-37.41s-16.78-37.41-37.41-37.41H51.3v-1.6h123.57c21.51,0,39,17.5,39,39s-17.5,39.01-39,39.01H51.3Z"/><circle class="cls-2" cx="112.16" cy="671.82" r="44.4" transform="translate(-25.75 4.81) rotate(-2.2)"/><circle class="cls-7" cx="112.16" cy="671.82" r="19.67" transform="translate(-65.81 14.36) rotate(-5.67)"/><circle class="cls-5" cx="387.31" cy="526.12" r="12.44" transform="translate(-194.17 823.93) rotate(-80.76)"/><path class="cls-3" d="M160.78,190.52c-14.65,14.65-38.4,14.65-53.04,0-14.65-14.65-14.65-38.4,0-53.04l53.04,53.04Z"/></svg>