<?xml version="1.0" encoding="UTF-8" standalone="no"?><!DOCTYPE svg PUBLIC "-//W3C//DTD SVG 1.1//EN" "http://www.w3.org/Graphics/SVG/1.1/DTD/svg11.dtd"><svg width="100%" height="100%" viewBox="0 0 6328 644" version="1.1" xmlns="http://www.w3.org/2000/svg" xmlns:xlink="http://www.w3.org/1999/xlink" xml:space="preserve" xmlns:serif="http://www.serif.com/" style="fill-rule:evenodd;clip-rule:evenodd;stroke-linejoin:round;stroke-miterlimit:2;"><rect id="Artboard6" x="-0" y="0.502" width="6326.51" height="642.73" style="fill:none;"/><clipPath id="_clip1"><rect x="-0" y="0.502" width="6326.51" height="642.73"/></clipPath><g clip-path="url(#_clip1)"><rect x="3406.6" y="80.666" width="486.652" height="486.706" style="fill:url(#_Linear2);"/><rect x="3893.25" y="80.666" width="486.652" height="486.706" style="fill:#0a3080;"/><rect x="4379.89" y="80.656" width="486.657" height="486.701" style="fill:url(#_Linear3);"/><path d="M4866.55,567.36c-268.776,0 -486.657,-217.881 -486.657,-486.652l-0,-0.049l486.657,0l-0,486.701Z" style="fill:#0a3080;fill-rule:nonzero;"/><rect x="1459.96" y="80.639" width="486.657" height="486.706" style="fill:#004bd7;"/><rect x="3406.6" y="80.671" width="486.652" height="243.35" style="fill:#ff00b0;"/><path d="M3564.73,324.01c-0,27.552 -22.33,49.882 -49.882,49.882l-0.01,-0c-27.547,-0 -49.882,-22.33 -49.882,-49.882c-0,-27.548 22.335,-49.882 49.882,-49.882l0.01,-0c27.552,-0 49.882,22.334 49.882,49.882" style="fill:#0a3080;fill-rule:nonzero;"/><path d="M3839.72,324.01c-0,27.552 -22.335,49.882 -49.882,49.882l-0.01,-0c-27.552,-0 -49.882,-22.33 -49.882,-49.882c-0,-27.548 22.33,-49.882 49.882,-49.882l0.01,-0c27.547,-0 49.882,22.334 49.882,49.882" style="fill:#0a3080;fill-rule:nonzero;"/><path d="M3702.22,324.01c-0,27.552 -22.33,49.882 -49.882,49.882l-0.01,-0c-27.547,-0 -49.882,-22.33 -49.882,-49.882c-0,-27.548 22.335,-49.882 49.882,-49.882l0.01,-0c27.552,-0 49.882,22.334 49.882,49.882" style="fill:#0a3080;fill-rule:nonzero;"/><path d="M4136.55,80.668l-243.301,243.351l-0,-243.351l243.301,0Z" style="fill:#004bd7;fill-rule:nonzero;"/><path d="M3893.24,567.357l486.652,0l0,-486.696l-486.652,486.696Z" style="fill:url(#_Linear4);fill-rule:nonzero;"/><path d="M4136.56,567.357l243.331,0l0,-243.345l-243.331,243.345Z" style="fill:#00ffe9;fill-rule:nonzero;"/><rect x="1459.97" y="80.644" width="243.326" height="486.706" style="fill:#0a3080;"/><path d="M1581.63,323.985l-0,0.019c-0,67.194 54.466,121.671 121.66,121.671c67.194,-0 121.666,-54.477 121.666,-121.671l-0,-0.019c-0,-67.194 -54.472,-121.666 -121.666,-121.666c-67.194,0 -121.66,54.472 -121.66,121.666Z" style="fill:url(#_Linear5);fill-rule:nonzero;"/><path d="M1653,323.995l0,0.004c0,27.772 22.52,50.286 50.291,50.286c27.771,0 50.286,-22.514 50.286,-50.286l0,-0.004c0,-27.776 -22.515,-50.291 -50.286,-50.291c-27.771,-0 -50.291,22.515 -50.291,50.291Z" style="fill:url(#_Linear6);fill-rule:nonzero;"/><rect x="2919.94" y="80.644" width="486.497" height="486.706" style="fill:#004bd7;"/><rect x="2433.29" y="80.649" width="486.657" height="486.706" style="fill:#0a3080;"/><path d="M2189.97,80.659c-134.378,-0 -243.351,108.919 -243.351,243.302l0,243.389l486.653,-0l-0,-486.691l-243.302,-0Z" style="fill:url(#_Linear7);fill-rule:nonzero;"/><path d="M2919.94,80.647l486.657,0l-486.657,486.706l0,-486.706Z" style="fill:#0a3080;fill-rule:nonzero;"/><path d="M3035.11,323.99l0,0.019c0,70.776 57.378,128.158 128.154,128.158c70.781,0 128.153,-57.382 128.153,-128.158l-0,-0.019c-0,-70.776 -57.372,-128.153 -128.153,-128.153c-70.776,-0 -128.154,57.377 -128.154,128.153Z" style="fill:url(#_Linear8);fill-rule:nonzero;"/><path d="M3112.98,323.999l-0,0.005c-0,27.771 22.515,50.286 50.286,50.286c27.771,0 50.29,-22.515 50.29,-50.286l0,-0.005c0,-27.776 -22.519,-50.29 -50.29,-50.29c-27.771,-0 -50.286,22.514 -50.286,50.29Z" style="fill:url(#_Linear9);fill-rule:nonzero;"/><path d="M2433.28,80.644l486.658,486.706l-0,-486.706l-486.658,0Z" style="fill:url(#_Linear10);fill-rule:nonzero;"/><path d="M2676.61,80.644l243.331,243.36l-0,-243.36l-243.331,0Z" style="fill:#00ffe9;fill-rule:nonzero;"/><path d="M2433.28,567.35l243.327,-0l-243.327,-243.346l0,243.346Z" style="fill:#ff00b0;fill-rule:nonzero;"/><path d="M2189.95,323.98l0,0.044c0,133.906 108.16,242.547 241.881,243.326l1.445,-0l0,-486.706c-134.387,0 -243.326,108.943 -243.326,243.336Z" style="fill:url(#_Linear11);fill-rule:nonzero;"/><path d="M2189.97,80.656l-0,486.701c-67.165,0 -128.003,-27.255 -172.049,-71.297c-44.046,-43.997 -71.302,-104.835 -71.302,-172.053l0,-0.049c0,-134.378 108.973,-243.302 243.351,-243.302" style="fill:#00ffe9;fill-rule:nonzero;"/><rect x="486.653" y="80.644" width="486.657" height="486.706" style="fill:#0a3080;"/><rect x="973.31" y="80.639" width="486.657" height="486.706" style="fill:#004bd7;"/><path d="M486.653,80.639l-0,486.706l2.059,0c267.821,-1.114 484.598,-218.568 484.598,-486.657l-0,-0.049l-486.657,0Z" style="fill:#ff00b0;fill-rule:nonzero;"/><path d="M486.655,323.997l-0,-243.355l243.326,-0l-0,0.024c-0,134.388 -108.938,243.331 -243.326,243.331" style="fill:#004bd7;fill-rule:nonzero;"/><path d="M973.31,567.321l-0,0.024l486.657,0l0,-0.024c0,-134.388 -108.943,-243.322 -243.331,-243.322c-134.383,0 -243.326,108.934 -243.326,243.322Z" style="fill:url(#_Linear12);fill-rule:nonzero;"/><path d="M973.31,323.975l-0,0.024l486.657,0l0,-0.024c0,-134.393 -108.943,-243.336 -243.331,-243.336c-134.383,0 -243.326,108.943 -243.326,243.336Z" style="fill:#00ffe9;fill-rule:nonzero;"/><rect x="5353.19" y="80.327" width="486.657" height="486.706" style="fill:#004bd7;"/><rect x="5353.2" y="80.331" width="243.326" height="486.706" style="fill:#0a3080;"/><path d="M5474.86,323.672l-0,0.02c-0,67.194 54.467,121.67 121.661,121.67c67.194,0 121.665,-54.476 121.665,-121.67l0,-0.02c0,-67.194 -54.471,-121.665 -121.665,-121.665c-67.194,-0 -121.661,54.471 -121.661,121.665Z" style="fill:url(#_Linear13);fill-rule:nonzero;"/><path d="M5546.23,323.682l-0,0.005c-0,27.771 22.519,50.286 50.291,50.286c27.771,-0 50.286,-22.515 50.286,-50.286l-0,-0.005c-0,-27.776 -22.515,-50.291 -50.286,-50.291c-27.772,0 -50.291,22.515 -50.291,50.291Z" style="fill:url(#_Linear14);fill-rule:nonzero;"/><path d="M6083.2,80.346c-134.378,0 -243.35,108.919 -243.35,243.302l-0,243.389l486.652,0l0,-486.691l-243.302,0Z" style="fill:url(#_Linear15);fill-rule:nonzero;"/><path d="M6083.19,323.667l-0,0.044c-0,133.906 108.159,242.548 241.88,243.326l1.446,0l-0,-486.706c-134.388,0 -243.326,108.944 -243.326,243.336Z" style="fill:url(#_Linear16);fill-rule:nonzero;"/><path d="M6083.2,80.344l0,486.701c-67.165,-0 -128.002,-27.256 -172.049,-71.297c-44.046,-43.998 -71.301,-104.836 -71.301,-172.054l-0,-0.049c-0,-134.378 108.972,-243.301 243.35,-243.301" style="fill:#ff00b0;fill-rule:nonzero;"/><rect x="4866.54" y="80.327" width="486.657" height="486.706" style="fill:#004bd7;"/><path d="M4866.54,567.008l0,0.024l486.657,0l0,-0.024c0,-134.388 -108.943,-243.321 -243.331,-243.321c-134.383,-0 -243.326,108.933 -243.326,243.321Z" style="fill:url(#_Linear17);fill-rule:nonzero;"/><path d="M4866.54,323.662l0,0.025l486.657,-0l0,-0.025c0,-134.392 -108.943,-243.335 -243.331,-243.335c-134.383,-0 -243.326,108.943 -243.326,243.335Z" style="fill:#00ffe9;fill-rule:nonzero;"/><path d="M4623.54,80.656l0,0.029c0,134.208 108.797,243.001 243,243.001l0,-243.03l-243,0Z" style="fill:#00ffe9;fill-rule:nonzero;"/><rect x="0" y="80.639" width="486.652" height="486.706" style="fill:#00ffe9;"/><path d="M486.657,567.348c-268.776,-0 -486.657,-217.887 -486.657,-486.658l-0,-0.048l486.657,-0l0,486.706Z" style="fill:#0a3080;fill-rule:nonzero;"/><path d="M243.331,80.639l0,0.029c0,134.388 108.939,243.331 243.322,243.331l-0,-243.36l-243.322,0Z" style="fill:url(#_Linear18);fill-rule:nonzero;"/></g><defs><linearGradient id="_Linear2" x1="0" y1="0" x2="1" y2="0" gradientUnits="userSpaceOnUse" gradientTransform="matrix(8.01431e-29,2181.48,-2181.48,1.60286e-28,3649.92,-1311.15)"><stop offset="0" style="stop-color:#fff;stop-opacity:1"/><stop offset="1" style="stop-color:#e1ecff;stop-opacity:1"/></linearGradient><linearGradient id="_Linear3" x1="0" y1="0" x2="1" y2="0" gradientUnits="userSpaceOnUse" gradientTransform="matrix(8.01431e-29,2181.48,-2181.48,1.60286e-28,4623.22,-1311.15)"><stop offset="0" style="stop-color:#fff;stop-opacity:1"/><stop offset="1" style="stop-color:#e1ecff;stop-opacity:1"/></linearGradient><linearGradient id="_Linear4" x1="0" y1="0" x2="1" y2="0" gradientUnits="userSpaceOnUse" gradientTransform="matrix(8.01431e-29,2181.48,-2181.48,1.60286e-28,4136.56,-1311.15)"><stop offset="0" style="stop-color:#fff;stop-opacity:1"/><stop offset="1" style="stop-color:#e1ecff;stop-opacity:1"/></linearGradient><linearGradient id="_Linear5" x1="0" y1="0" x2="1" y2="0" gradientUnits="userSpaceOnUse" gradientTransform="matrix(8.01431e-29,2181.48,-2181.48,1.60286e-28,1703.29,-1797.87)"><stop offset="0" style="stop-color:#fff;stop-opacity:1"/><stop offset="1" style="stop-color:#e1ecff;stop-opacity:1"/></linearGradient><linearGradient id="_Linear6" x1="0" y1="0" x2="1" y2="0" gradientUnits="userSpaceOnUse" gradientTransform="matrix(2.67144e-29,2618.65,-2618.65,2.40429e-28,1703.29,-1882.69)"><stop offset="0" style="stop-color:#0096e9;stop-opacity:1"/><stop offset="1" style="stop-color:#003ed4;stop-opacity:1"/></linearGradient><linearGradient id="_Linear7" x1="0" y1="0" x2="1" y2="0" gradientUnits="userSpaceOnUse" gradientTransform="matrix(2.67144e-29,2618.65,-2618.65,2.40429e-28,2189.95,-1882.69)"><stop offset="0" style="stop-color:#0096e9;stop-opacity:1"/><stop offset="1" style="stop-color:#003ed4;stop-opacity:1"/></linearGradient><linearGradient id="_Linear8" x1="0" y1="0" x2="1" y2="0" gradientUnits="userSpaceOnUse" gradientTransform="matrix(8.01431e-29,2181.48,-2181.48,1.60286e-28,3163.27,-1797.86)"><stop offset="0" style="stop-color:#fff;stop-opacity:1"/><stop offset="1" style="stop-color:#e1ecff;stop-opacity:1"/></linearGradient><linearGradient id="_Linear9" x1="0" y1="0" x2="1" y2="0" gradientUnits="userSpaceOnUse" gradientTransform="matrix(2.67144e-29,2618.65,-2618.65,2.40429e-28,3163.27,-1882.69)"><stop offset="0" style="stop-color:#0096e9;stop-opacity:1"/><stop offset="1" style="stop-color:#003ed4;stop-opacity:1"/></linearGradient><linearGradient id="_Linear10" x1="0" y1="0" x2="1" y2="0" gradientUnits="userSpaceOnUse" gradientTransform="matrix(8.01431e-29,2181.48,-2181.48,1.60286e-28,2676.61,-1797.86)"><stop offset="0" style="stop-color:#fff;stop-opacity:1"/><stop offset="1" style="stop-color:#e1ecff;stop-opacity:1"/></linearGradient><linearGradient id="_Linear11" x1="0" y1="0" x2="1" y2="0" gradientUnits="userSpaceOnUse" gradientTransform="matrix(8.01431e-29,2181.48,-2181.48,1.60286e-28,2311.62,-1797.86)"><stop offset="0" style="stop-color:#fff;stop-opacity:1"/><stop offset="1" style="stop-color:#e1ecff;stop-opacity:1"/></linearGradient><linearGradient id="_Linear12" x1="0" y1="0" x2="1" y2="0" gradientUnits="userSpaceOnUse" gradientTransform="matrix(8.01431e-29,2181.48,-2181.48,1.87e-28,1216.64,-1797.87)"><stop offset="0" style="stop-color:#fff;stop-opacity:1"/><stop offset="1" style="stop-color:#e1ecff;stop-opacity:1"/></linearGradient><linearGradient id="_Linear13" x1="0" y1="0" x2="1" y2="0" gradientUnits="userSpaceOnUse" gradientTransform="matrix(8.01431e-29,2181.48,-2181.48,1.60286e-28,5596.53,-1798.18)"><stop offset="0" style="stop-color:#fff;stop-opacity:1"/><stop offset="1" style="stop-color:#e1ecff;stop-opacity:1"/></linearGradient><linearGradient id="_Linear14" x1="0" y1="0" x2="1" y2="0" gradientUnits="userSpaceOnUse" gradientTransform="matrix(2.67144e-29,2618.65,-2618.65,2.40429e-28,5596.53,-1883.01)"><stop offset="0" style="stop-color:#0096e9;stop-opacity:1"/><stop offset="1" style="stop-color:#003ed4;stop-opacity:1"/></linearGradient><linearGradient id="_Linear15" x1="0" y1="0" x2="1" y2="0" gradientUnits="userSpaceOnUse" gradientTransform="matrix(2.67144e-29,2618.65,-2618.65,2.40429e-28,6083.18,-1883)"><stop offset="0" style="stop-color:#0096e9;stop-opacity:1"/><stop offset="1" style="stop-color:#003ed4;stop-opacity:1"/></linearGradient><linearGradient id="_Linear16" x1="0" y1="0" x2="1" y2="0" gradientUnits="userSpaceOnUse" gradientTransform="matrix(8.01431e-29,2181.48,-2181.48,1.60286e-28,6204.85,-1798.17)"><stop offset="0" style="stop-color:#fff;stop-opacity:1"/><stop offset="1" style="stop-color:#e1ecff;stop-opacity:1"/></linearGradient><linearGradient id="_Linear17" x1="0" y1="0" x2="1" y2="0" gradientUnits="userSpaceOnUse" gradientTransform="matrix(8.01431e-29,2181.48,-2181.48,1.87e-28,5109.87,-1798.18)"><stop offset="0" style="stop-color:#fff;stop-opacity:1"/><stop offset="1" style="stop-color:#e1ecff;stop-opacity:1"/></linearGradient><linearGradient id="_Linear18" x1="0" y1="0" x2="1" y2="0" gradientUnits="userSpaceOnUse" gradientTransform="matrix(1.33572e-28,2181.48,-2181.48,1.87e-28,364.992,-1797.87)"><stop offset="0" style="stop-color:#fff;stop-opacity:1"/><stop offset="1" style="stop-color:#e1ecff;stop-opacity:1"/></linearGradient></defs></svg>